# xmcd CD database file
#
# Track frame offsets:
#	150
#	32695
#	53973
#	85764
#	109625
#	164515
#	177049
#
# Disc length: 2720 seconds
#
# Revision: 1
# Processed by: cddbd v1.5.2PL0 Copyright (c) Steve Scherf et al.
# Submitted via: CDex 1.70beta3
#
DISCID=4e0a9e07
DTITLE=Starlite Motel - Awosting Falls
DYEAR=2014
DGENRE=Jazz
TTITLE0=A Beautiful Nightmare
TTITLE1=Starlite
TTITLE2=The Art of Silence
TTITLE3=The Prince of the Bull
TTITLE4=Suspended Veil
TTITLE5=Minnewaska
TTITLE6=A Thousand Thousandths
EXTD=YEAR: 2014
EXTT0=
EXTT1=
EXTT2=
EXTT3=
EXTT4=
EXTT5=
EXTT6=
PLAYORDER=
